<?xml version="1.0" encoding="UTF-8" standalone="no"?>
<svg
   xmlns:dc="http://purl.org/dc/elements/1.1/"
   xmlns:cc="http://creativecommons.org/ns#"
   xmlns:rdf="http://www.w3.org/1999/02/22-rdf-syntax-ns#"
   xmlns:svg="http://www.w3.org/2000/svg"
   xmlns="http://www.w3.org/2000/svg"
   xmlns:sodipodi="http://sodipodi.sourceforge.net/DTD/sodipodi-0.dtd"
   xmlns:inkscape="http://www.inkscape.org/namespaces/inkscape"
   inkscape:version="1.0 (4035a4f, 2020-05-01)"
   sodipodi:docname="regular-table-logo.svg"
   id="svg572"
   preserveAspectRatio="xMidYMid meet"
   viewBox="0 0 2440 2060"
   height="206px"
   width="244px"
   version="1.0">
  <metadata
     id="metadata578">
    <rdf:RDF>
      <cc:Work
         rdf:about="">
        <dc:format>image/svg+xml</dc:format>
        <dc:type
           rdf:resource="http://purl.org/dc/dcmitype/StillImage" />
        <dc:title></dc:title>
      </cc:Work>
    </rdf:RDF>
  </metadata>
  <defs
     id="defs576" />
  <sodipodi:namedview
     inkscape:current-layer="layer2"
     inkscape:window-maximized="1"
     inkscape:window-y="0"
     inkscape:window-x="0"
     inkscape:cy="105.86163"
     inkscape:cx="131.85977"
     inkscape:zoom="2.5229295"
     inkscape:lockguides="true"
     inkscape:guide-bbox="true"
     showguides="true"
     inkscape:snap-global="false"
     showgrid="false"
     id="namedview574"
     inkscape:window-height="1028"
     inkscape:window-width="1680"
     inkscape:pageshadow="2"
     inkscape:pageopacity="0"
     guidetolerance="10"
     gridtolerance="10"
     objecttolerance="10"
     borderopacity="1"
     bordercolor="#666666"
     pagecolor="#ffffff">
    <sodipodi:guide
       id="guide1993"
       orientation="-0.32289725,-0.94643403"
       position="404.29191,331.85027" />
  </sodipodi:namedview>
  <g
     sodipodi:insensitive="true"
     style="display:none;opacity:0.228188"
     inkscape:label="Layer 1"
     id="layer1"
     inkscape:groupmode="layer">
    <g
       transform="translate(-6.0874361,56.368573)"
       id="layer101"
       fill="#050505"
       stroke="none">
      <path
         d="m 1075,1962 -60,-17 v -300 c 0,-165 -1,-334 -2,-376 l -3,-76 -82,-31 C 844,1130 441,990 434,990 c -2,0 -4,148 -4,329 0,181 -4,341 -9,354 -10,26 -62,52 -97,49 -12,-1 -47,-11 -78,-23 l -56,-20 V 1195 712 L 141,695 C 91,679 80,666 80,625 80,586 111,563 225,522 286,500 505,418 713,340 921,262 1166,172 1258,139 l 165,-60 161,30 c 89,16 233,44 320,61 88,17 212,39 275,50 143,25 169,35 178,68 9,38 -8,74 -52,103 -35,24 -41,34 -47,76 -3,26 -7,240 -7,475 l -1,426 -36,22 c -29,18 -45,22 -85,17 -27,-3 -54,-9 -59,-12 -6,-4 -10,-136 -10,-346 V 709 l -57,32 c -72,40 -358,215 -395,241 -27,19 -27,21 -30,140 l -3,120 -37,21 c -33,20 -40,21 -84,9 -27,-7 -51,-15 -53,-18 -3,-3 -7,-36 -9,-75 -2,-38 -6,-69 -9,-69 -3,0 -34,16 -69,36 l -64,36 v 368 368 l -42,31 c -48,35 -51,36 -133,13 z m 65,-265 c 0,-129 -3,-336 -7,-461 l -6,-227 -35,-15 c -19,-8 -36,-13 -38,-12 -1,2 -4,212 -5,467 l -4,465 25,7 c 14,4 35,7 48,8 l 22,1 z m 61,213 c 21,-17 22,-21 9,-30 -8,-5 -10,-10 -4,-10 15,0 14,-240 -1,-240 -7,0 -7,-3 0,-8 15,-11 17,-52 2,-52 -8,0 -7,-3 2,-9 12,-8 12,-12 2,-25 -9,-10 -9,-16 -3,-16 6,0 10,-13 9,-30 -1,-16 -6,-30 -10,-30 -5,0 -5,-6 -1,-12 12,-19 12,-48 1,-48 -5,0 -4,-6 2,-13 6,-8 8,-17 5,-20 -4,-3 -6,-76 -6,-161 1,-90 -3,-158 -8,-161 -6,-3 -10,-12 -10,-18 0,-7 4,-6 10,3 8,13 10,12 10,-2 0,-13 -8,-18 -25,-18 h -25 v 460 c 0,262 4,460 9,460 5,0 19,-9 32,-20 z M 310,1221 V 752 l -36,-12 c -19,-7 -38,-10 -40,-7 -3,3 -8,211 -11,464 l -6,458 44,17 c 24,9 45,17 47,17 1,1 2,-210 2,-468 z m 76,270 c 1,-119 -2,-171 -10,-171 -8,0 -8,-2 0,-8 7,-5 11,-63 11,-172 0,-134 -3,-167 -15,-176 -11,-8 -15,-34 -16,-102 -1,-51 -4,-92 -8,-92 -5,0 -8,208 -8,461 v 461 l 23,-14 c 21,-15 22,-21 23,-187 z m 1711,-128 c -4,-3 -7,0 -7,7 0,7 3,10 7,7 3,-4 3,-10 0,-14 z m 53,-415 c 0,-390 -6,-500 -24,-448 -3,8 -4,48 -3,89 2,59 -1,78 -14,90 -15,14 -17,41 -17,198 1,132 4,181 12,176 8,-5 8,-3 0,8 -16,22 -18,189 -2,189 8,0 9,3 3,8 -16,11 -17,34 -3,43 8,5 9,9 2,9 -6,0 -10,8 -9,18 3,32 17,52 36,52 18,0 19,-15 19,-432 z m 60,401 c 13,-24 13,-32 -2,-23 -10,6 -10,4 0,-7 6,-7 12,-30 12,-51 0,-24 -5,-38 -12,-38 -10,0 -10,-2 -1,-8 15,-9 15,-211 0,-230 -7,-9 -7,-16 1,-24 16,-16 16,-88 0,-88 -10,0 -10,-2 -1,-8 14,-9 16,-198 1,-225 -7,-14 -7,-17 1,-13 8,5 10,-21 9,-88 -1,-53 -4,-93 -7,-88 -3,4 -13,7 -21,7 -13,0 -15,59 -18,457 -2,408 -1,457 13,452 9,-4 20,-15 25,-25 z m -754,-161 c -14,-24 -26,-35 -26,-26 0,22 43,94 48,80 2,-6 -8,-31 -22,-54 z m 66,15 c -12,-24 -9,-113 4,-136 8,-14 10,1 9,61 -2,80 5,116 19,93 4,-6 2,-11 -4,-11 -8,0 -8,-6 0,-20 8,-14 8,-20 0,-20 -7,0 -8,-6 0,-19 13,-25 13,-34 0,-26 -5,3 -10,2 -10,-4 0,-5 5,-13 10,-16 6,-3 10,-11 10,-16 0,-6 -4,-7 -10,-4 -5,3 -10,2 -10,-4 0,-5 5,-13 10,-16 6,-3 10,-11 10,-16 0,-6 -5,-7 -12,-3 -8,5 -9,1 -5,-12 7,-18 6,-18 -9,1 -8,11 -19,19 -23,18 -4,-1 -8,36 -8,82 0,51 4,82 10,78 5,-3 6,4 3,18 -6,20 -5,21 4,7 7,-11 7,-24 2,-35 z m -85,20 c -4,-3 -7,0 -7,7 0,7 3,10 7,7 3,-4 3,-10 0,-14 z m 23,-99 c -32,-50 -39,-32 -10,22 16,28 26,39 28,29 2,-8 -6,-31 -18,-51 z m 67,49 c -4,-3 -7,0 -7,7 0,7 3,10 7,7 3,-4 3,-10 0,-14 z M 1003,980 c -8,-7 -603,-200 -617,-200 -3,0 -6,38 -6,84 v 84 l 58,21 c 31,11 172,60 312,109 l 255,90 3,-91 c 1,-49 -1,-93 -5,-97 z m 390,93 c 73,-42 195,-113 272,-158 77,-45 206,-121 288,-169 l 147,-88 v -69 c 0,-41 -4,-69 -10,-69 -12,0 -58,28 -78,47 -7,7 -20,13 -28,13 -9,0 -12,5 -8,12 5,8 2,9 -10,5 -10,-4 -19,-1 -22,8 -4,8 -10,12 -15,9 -5,-3 -19,6 -32,18 -13,13 -29,22 -35,20 -6,-2 -20,6 -31,17 -12,12 -24,22 -28,22 -20,4 -53,23 -53,31 0,4 -7,8 -15,8 -8,0 -15,5 -15,10 0,6 -7,10 -16,10 -23,0 -74,32 -74,47 0,7 -6,10 -14,7 -8,-3 -23,3 -33,13 -11,11 -25,17 -31,15 -7,-2 -10,2 -6,12 5,12 2,15 -10,10 -9,-3 -16,-1 -16,5 0,6 -3,10 -7,9 -8,-2 -59,22 -100,46 -13,7 -20,16 -15,21 4,4 -1,5 -10,2 -20,-7 -34,8 -16,17 7,3 3,3 -9,0 -18,-4 -23,-1 -23,13 0,11 -3,14 -8,7 -5,-8 -19,-4 -46,13 -30,19 -36,27 -25,34 12,8 12,11 -1,19 -13,8 -13,10 0,10 11,0 11,3 2,12 -12,12 -17,88 -6,88 3,0 65,-35 137,-77 z m 134,60 c -4,-3 -7,0 -7,7 0,7 3,10 7,7 3,-4 3,-10 0,-14 z m -51,-49 c -3,-8 -10,-13 -16,-9 -6,4 -5,13 3,26 13,21 23,8 13,-17 z m 51,9 c -4,-3 -7,0 -7,7 0,7 3,10 7,7 3,-4 3,-10 0,-14 z m 690,-120 c -4,-3 -7,0 -7,7 0,7 3,10 7,7 3,-4 3,-10 0,-14 z M 1160,940 c 0,-28 -3,-30 -122,-68 C 970,850 812,802 685,765 559,728 384,676 297,649 169,611 138,604 133,616 c -3,8 -3,20 0,27 3,7 157,61 343,120 187,59 413,132 504,161 91,30 168,52 173,49 4,-2 7,-17 7,-33 z m 430,-180 c 635,-354 740,-415 746,-434 17,-51 -22,-34 -395,173 -210,116 -456,252 -549,302 -205,111 -222,125 -190,157 8,8 17,8 32,0 12,-6 172,-95 356,-198 z m -253,48 c 518,-282 953,-523 953,-528 0,-11 -779,-179 -839,-182 -25,-1 -177,53 -506,180 -497,192 -763,297 -770,304 -5,5 967,303 1000,307 6,0 78,-36 162,-81 z"
         id="path325" />
      <path
         d="m 1200,1800 c 0,-7 3,-10 7,-7 3,4 3,10 0,14 -4,3 -7,0 -7,-7 z"
         id="path327" />
      <path
         d="m 363,993 c 4,-3 10,-3 14,0 3,4 0,7 -7,7 -7,0 -10,-3 -7,-7 z"
         id="path329" />
      <path
         d="m 2110,720 c 0,-7 3,-10 7,-7 3,4 3,10 0,14 -4,3 -7,0 -7,-7 z"
         id="path331" />
      <path
         d="m 2200,1020 c 0,-7 3,-10 7,-7 3,4 3,10 0,14 -4,3 -7,0 -7,-7 z"
         id="path333" />
      <path
         d="m 2200,930 c 0,-7 3,-10 7,-7 3,4 3,10 0,14 -4,3 -7,0 -7,-7 z"
         id="path335" />
      <path
         d="m 2180,520 c 0,-7 3,-10 7,-7 3,4 3,10 0,14 -4,3 -7,0 -7,-7 z"
         id="path337" />
      <path
         d="m 1270,1080 c 0,-7 3,-10 7,-7 3,4 3,10 0,14 -4,3 -7,0 -7,-7 z"
         id="path339" />
      <path
         d="m 1280,1050 c 0,-7 3,-10 7,-7 3,4 3,10 0,14 -4,3 -7,0 -7,-7 z"
         id="path341" />
      <path
         d="m 1306,1035 c -9,-26 -7,-32 5,-12 6,10 9,21 6,23 -2,3 -7,-2 -11,-11 z"
         id="path343" />
      <path
         d="m 1330,1000 c 0,-7 3,-10 7,-7 3,4 3,10 0,14 -4,3 -7,0 -7,-7 z"
         id="path345" />
      <path
         d="m 1303,993 c 4,-3 10,-3 14,0 3,4 0,7 -7,7 -7,0 -10,-3 -7,-7 z"
         id="path347" />
      <path
         d="m 1353,983 c 4,-3 10,-3 14,0 3,4 0,7 -7,7 -7,0 -10,-3 -7,-7 z"
         id="path349" />
      <path
         d="m 1383,973 c 4,-3 10,-3 14,0 3,4 0,7 -7,7 -7,0 -10,-3 -7,-7 z"
         id="path351" />
      <path
         d="m 1433,943 c 4,-3 10,-3 14,0 3,4 0,7 -7,7 -7,0 -10,-3 -7,-7 z"
         id="path353" />
      <path
         d="m 1470,930 c 0,-7 3,-10 7,-7 3,4 3,10 0,14 -4,3 -7,0 -7,-7 z"
         id="path355" />
      <path
         d="m 1560,881 c 0,-10 19,-25 25,-20 1,2 -3,10 -11,17 -8,7 -14,8 -14,3 z"
         id="path357" />
      <path
         d="m 1580,839 c 0,-5 5,-7 10,-4 6,3 10,8 10,11 0,2 -4,4 -10,4 -5,0 -10,-5 -10,-11 z"
         id="path359" />
      <path
         d="m 1630,830 c 0,-7 3,-10 7,-7 3,4 3,10 0,14 -4,3 -7,0 -7,-7 z"
         id="path361" />
      <path
         d="m 1600,820 c 0,-7 3,-10 7,-7 3,4 3,10 0,14 -4,3 -7,0 -7,-7 z"
         id="path363" />
      <path
         d="m 1670,780 c 0,-7 3,-10 7,-7 3,4 3,10 0,14 -4,3 -7,0 -7,-7 z"
         id="path365" />
      <path
         d="m 1693,763 c 4,-3 10,-3 14,0 3,4 0,7 -7,7 -7,0 -10,-3 -7,-7 z"
         id="path367" />
      <path
         d="m 1753,743 c 4,-3 10,-3 14,0 3,4 0,7 -7,7 -7,0 -10,-3 -7,-7 z"
         id="path369" />
      <path
         d="m 1773,723 c 4,-3 10,-3 14,0 3,4 0,7 -7,7 -7,0 -10,-3 -7,-7 z"
         id="path371" />
      <path
         d="m 1803,703 c 4,-3 10,-3 14,0 3,4 0,7 -7,7 -7,0 -10,-3 -7,-7 z"
         id="path373" />
      <path
         d="m 1833,683 c 4,-3 10,-3 14,0 3,4 0,7 -7,7 -7,0 -10,-3 -7,-7 z"
         id="path375" />
      <path
         d="m 1900,640 c 0,-7 3,-10 7,-7 3,4 3,10 0,14 -4,3 -7,0 -7,-7 z"
         id="path377" />
      <path
         d="m 1953,623 c 4,-3 10,-3 14,0 3,4 0,7 -7,7 -7,0 -10,-3 -7,-7 z"
         id="path379" />
      <path
         d="m 2000,600 c 0,-7 3,-10 7,-7 3,4 3,10 0,14 -4,3 -7,0 -7,-7 z"
         id="path381" />
      <path
         d="m 2033,563 c 4,-3 10,-3 14,0 3,4 0,7 -7,7 -7,0 -10,-3 -7,-7 z"
         id="path383" />
    </g>
    <g
       transform="translate(-6.0874361,56.368573)"
       id="layer102"
       fill="#5f5f5f"
       stroke="none">
      <path
         d="m 1044,1630 c 0,-102 2,-143 3,-92 2,50 2,134 0,185 -1,50 -3,9 -3,-93 z"
         id="path386" />
      <path
         d="m 1134,1490 c 0,-102 2,-143 3,-92 2,50 2,134 0,185 -1,50 -3,9 -3,-93 z"
         id="path388" />
      <path
         d="m 1014,1470 c 0,-74 1,-105 3,-67 2,37 2,97 0,135 -2,37 -3,6 -3,-68 z"
         id="path390" />
      <path
         d="m 2054,1260 c 0,-69 1,-97 3,-62 2,34 2,90 0,125 -2,34 -3,6 -3,-63 z"
         id="path392" />
      <path
         d="m 1582,1140 c 0,-14 2,-19 5,-12 2,6 2,18 0,25 -3,6 -5,1 -5,-13 z"
         id="path394" />
      <path
         d="m 843,1133 c 4,-3 10,-3 14,0 3,4 0,7 -7,7 -7,0 -10,-3 -7,-7 z"
         id="path396" />
      <path
         d="m 813,1123 c 4,-3 10,-3 14,0 3,4 0,7 -7,7 -7,0 -10,-3 -7,-7 z"
         id="path398" />
      <path
         d="m 793,1093 c 4,-3 10,-3 14,0 3,4 0,7 -7,7 -7,0 -10,-3 -7,-7 z"
         id="path400" />
      <path
         d="m 613,1053 c 4,-3 10,-3 14,0 3,4 0,7 -7,7 -7,0 -10,-3 -7,-7 z"
         id="path402" />
      <path
         d="m 593,1023 c 4,-3 10,-3 14,0 3,4 0,7 -7,7 -7,0 -10,-3 -7,-7 z"
         id="path404" />
      <path
         d="m 563,1013 c 4,-3 10,-3 14,0 3,4 0,7 -7,7 -7,0 -10,-3 -7,-7 z"
         id="path406" />
      <path
         d="m 1785,870 c 3,-5 8,-10 11,-10 3,0 2,5 -1,10 -3,6 -8,10 -11,10 -3,0 -2,-4 1,-10 z"
         id="path408" />
      <path
         d="m 973,853 c 4,-3 10,-3 14,0 3,4 0,7 -7,7 -7,0 -10,-3 -7,-7 z"
         id="path410" />
      <path
         d="m 1023,843 c 4,-3 10,-3 14,0 3,4 0,7 -7,7 -7,0 -10,-3 -7,-7 z"
         id="path412" />
      <path
         d="m 1785,840 c 3,-5 8,-10 11,-10 3,0 2,5 -1,10 -3,6 -8,10 -11,10 -3,0 -2,-4 1,-10 z"
         id="path414" />
      <path
         d="m 873,823 c 4,-3 10,-3 14,0 3,4 0,7 -7,7 -7,0 -10,-3 -7,-7 z"
         id="path416" />
      <path
         d="m 923,813 c 4,-3 10,-3 14,0 3,4 0,7 -7,7 -7,0 -10,-3 -7,-7 z"
         id="path418" />
      <path
         d="m 773,793 c 4,-3 10,-3 14,0 3,4 0,7 -7,7 -7,0 -10,-3 -7,-7 z"
         id="path420" />
      <path
         d="m 853,793 c 4,-3 10,-3 14,0 3,4 0,7 -7,7 -7,0 -10,-3 -7,-7 z"
         id="path422" />
      <path
         d="m 1915,790 c 3,-5 8,-10 11,-10 3,0 2,5 -1,10 -3,6 -8,10 -11,10 -3,0 -2,-4 1,-10 z"
         id="path424" />
      <path
         d="m 743,783 c 4,-3 10,-3 14,0 3,4 0,7 -7,7 -7,0 -10,-3 -7,-7 z"
         id="path426" />
      <path
         d="m 823,783 c 4,-3 10,-3 14,0 3,4 0,7 -7,7 -7,0 -10,-3 -7,-7 z"
         id="path428" />
      <path
         d="m 673,763 c 4,-3 10,-3 14,0 3,4 0,7 -7,7 -7,0 -10,-3 -7,-7 z"
         id="path430" />
      <path
         d="m 723,753 c 4,-3 10,-3 14,0 3,4 0,7 -7,7 -7,0 -10,-3 -7,-7 z"
         id="path432" />
      <path
         d="m 573,733 c 4,-3 10,-3 14,0 3,4 0,7 -7,7 -7,0 -10,-3 -7,-7 z"
         id="path434" />
      <path
         d="m 623,723 c 4,-3 10,-3 14,0 3,4 0,7 -7,7 -7,0 -10,-3 -7,-7 z"
         id="path436" />
      <path
         d="m 593,713 c 4,-3 10,-3 14,0 3,4 0,7 -7,7 -7,0 -10,-3 -7,-7 z"
         id="path438" />
      <path
         d="m 493,683 c 4,-3 10,-3 14,0 3,4 0,7 -7,7 -7,0 -10,-3 -7,-7 z"
         id="path440" />
      <path
         d="m 423,443 c 4,-3 10,-3 14,0 3,4 0,7 -7,7 -7,0 -10,-3 -7,-7 z"
         id="path442" />
      <path
         d="m 563,423 c 4,-3 10,-3 14,0 3,4 0,7 -7,7 -7,0 -10,-3 -7,-7 z"
         id="path444" />
      <path
         d="m 583,383 c 4,-3 10,-3 14,0 3,4 0,7 -7,7 -7,0 -10,-3 -7,-7 z"
         id="path446" />
      <path
         d="m 693,373 c 4,-3 10,-3 14,0 3,4 0,7 -7,7 -7,0 -10,-3 -7,-7 z"
         id="path448" />
      <path
         d="m 2335,370 c 3,-5 8,-10 11,-10 3,0 2,5 -1,10 -3,6 -8,10 -11,10 -3,0 -2,-4 1,-10 z"
         id="path450" />
      <path
         d="m 743,353 c 4,-3 10,-3 14,0 3,4 0,7 -7,7 -7,0 -10,-3 -7,-7 z"
         id="path452" />
      <path
         d="m 873,303 c 4,-3 10,-3 14,0 3,4 0,7 -7,7 -7,0 -10,-3 -7,-7 z"
         id="path454" />
      <path
         d="m 823,293 c 4,-3 10,-3 14,0 3,4 0,7 -7,7 -7,0 -10,-3 -7,-7 z"
         id="path456" />
      <path
         d="m 983,233 c 4,-3 10,-3 14,0 3,4 0,7 -7,7 -7,0 -10,-3 -7,-7 z"
         id="path458" />
      <path
         d="m 2103,233 c 4,-3 10,-3 14,0 3,4 0,7 -7,7 -7,0 -10,-3 -7,-7 z"
         id="path460" />
      <path
         d="m 2058,223 c 7,-3 16,-2 19,1 4,3 -2,6 -13,5 -11,0 -14,-3 -6,-6 z"
         id="path462" />
      <path
         d="m 2003,213 c 4,-3 10,-3 14,0 3,4 0,7 -7,7 -7,0 -10,-3 -7,-7 z"
         id="path464" />
      <path
         d="m 2143,213 c 4,-3 10,-3 14,0 3,4 0,7 -7,7 -7,0 -10,-3 -7,-7 z"
         id="path466" />
      <path
         d="m 1063,203 c 4,-3 10,-3 14,0 3,4 0,7 -7,7 -7,0 -10,-3 -7,-7 z"
         id="path468" />
      <path
         d="m 1133,203 c 4,-3 10,-3 14,0 3,4 0,7 -7,7 -7,0 -10,-3 -7,-7 z"
         id="path470" />
      <path
         d="m 1963,203 c 4,-3 10,-3 14,0 3,4 0,7 -7,7 -7,0 -10,-3 -7,-7 z"
         id="path472" />
      <path
         d="m 2093,203 c 4,-3 10,-3 14,0 3,4 0,7 -7,7 -7,0 -10,-3 -7,-7 z"
         id="path474" />
      <path
         d="m 1913,193 c 4,-3 10,-3 14,0 3,4 0,7 -7,7 -7,0 -10,-3 -7,-7 z"
         id="path476" />
      <path
         d="m 2043,193 c 4,-3 10,-3 14,0 3,4 0,7 -7,7 -7,0 -10,-3 -7,-7 z"
         id="path478" />
      <path
         d="m 1868,183 c 7,-3 16,-2 19,1 4,3 -2,6 -13,5 -11,0 -14,-3 -6,-6 z"
         id="path480" />
      <path
         d="m 1988,183 c 7,-3 16,-2 19,1 4,3 -2,6 -13,5 -11,0 -14,-3 -6,-6 z"
         id="path482" />
      <path
         d="m 1823,173 c 4,-3 10,-3 14,0 3,4 0,7 -7,7 -7,0 -10,-3 -7,-7 z"
         id="path484" />
      <path
         d="m 1938,173 c 7,-3 16,-2 19,1 4,3 -2,6 -13,5 -11,0 -14,-3 -6,-6 z"
         id="path486" />
      <path
         d="m 1173,163 c 4,-3 10,-3 14,0 3,4 0,7 -7,7 -7,0 -10,-3 -7,-7 z"
         id="path488" />
      <path
         d="m 1773,163 c 4,-3 10,-3 14,0 3,4 0,7 -7,7 -7,0 -10,-3 -7,-7 z"
         id="path490" />
      <path
         d="m 1883,163 c 4,-3 10,-3 14,0 3,4 0,7 -7,7 -7,0 -10,-3 -7,-7 z"
         id="path492" />
      <path
         d="m 1263,153 c 4,-3 10,-3 14,0 3,4 0,7 -7,7 -7,0 -10,-3 -7,-7 z"
         id="path494" />
      <path
         d="m 1728,153 c 7,-3 16,-2 19,1 4,3 -2,6 -13,5 -11,0 -14,-3 -6,-6 z"
         id="path496" />
      <path
         d="m 1833,153 c 4,-3 10,-3 14,0 3,4 0,7 -7,7 -7,0 -10,-3 -7,-7 z"
         id="path498" />
      <path
         d="m 1683,143 c 4,-3 10,-3 14,0 3,4 0,7 -7,7 -7,0 -10,-3 -7,-7 z"
         id="path500" />
      <path
         d="m 1778,143 c 7,-3 16,-2 19,1 4,3 -2,6 -13,5 -11,0 -14,-3 -6,-6 z"
         id="path502" />
      <path
         d="m 1253,133 c 4,-3 10,-3 14,0 3,4 0,7 -7,7 -7,0 -10,-3 -7,-7 z"
         id="path504" />
      <path
         d="m 1633,133 c 4,-3 10,-3 14,0 3,4 0,7 -7,7 -7,0 -10,-3 -7,-7 z"
         id="path506" />
      <path
         d="m 1733,133 c 4,-3 10,-3 14,0 3,4 0,7 -7,7 -7,0 -10,-3 -7,-7 z"
         id="path508" />
      <path
         d="m 1583,123 c 4,-3 10,-3 14,0 3,4 0,7 -7,7 -7,0 -10,-3 -7,-7 z"
         id="path510" />
      <path
         d="m 1673,123 c 4,-3 10,-3 14,0 3,4 0,7 -7,7 -7,0 -10,-3 -7,-7 z"
         id="path512" />
      <path
         d="m 1550,110 c 8,-5 22,-9 30,-9 10,0 8,3 -5,9 -27,12 -43,12 -25,0 z"
         id="path514" />
      <path
         d="m 1623,113 c 4,-3 10,-3 14,0 3,4 0,7 -7,7 -7,0 -10,-3 -7,-7 z"
         id="path516" />
      <path
         d="m 1500,100 c 8,-5 22,-9 30,-9 10,0 8,3 -5,9 -27,12 -43,12 -25,0 z"
         id="path518" />
      <path
         d="m 1363,93 c 4,-3 10,-3 14,0 3,4 0,7 -7,7 -7,0 -10,-3 -7,-7 z"
         id="path520" />
      <path
         d="m 1393,83 c 4,-3 10,-3 14,0 3,4 0,7 -7,7 -7,0 -10,-3 -7,-7 z"
         id="path522" />
      <path
         d="m 1463,83 c 4,-3 10,-3 14,0 3,4 0,7 -7,7 -7,0 -10,-3 -7,-7 z"
         id="path524" />
    </g>
  </g>
  <g
     sodipodi:insensitive="true"
     style="display:inline"
     inkscape:groupmode="layer"
     id="g1008"
     inkscape:label="Layer 2 copy">
    <path
       style="fill:#f1be6d;fill-opacity:1;stroke:none;stroke-width:10px;stroke-linecap:butt;stroke-linejoin:miter;stroke-opacity:1"
       d="m 2239.3742,341.93198 -1.067,1020.77672 -77.4092,55.4681 -103.7007,-25.2245 -6.0874,-991.93747"
       id="path1000"
       sodipodi:nodetypes="ccccc" />
    <path
       style="fill:#f1be6d;fill-opacity:1;stroke:none;stroke-width:10px;stroke-linecap:butt;stroke-linejoin:miter;stroke-opacity:1"
       d="M 178.30712,667.47061 V 1673.7087 l 129.9922,44.3593 92.4898,-53.2517 2.80272,-994.96592"
       id="path994"
       sodipodi:nodetypes="ccccc" />
    <path
       style="fill:#f1be6d;fill-opacity:1;stroke:none;stroke-width:10px;stroke-linecap:butt;stroke-linejoin:miter;stroke-opacity:1"
       d="m 1381.3072,1034.0761 8,214.6326 101.7405,32.1348 86.2731,-49.7402 -7.7969,-289.38902"
       id="path1002"
       sodipodi:nodetypes="ccccc" />
    <path
       d="m 355.94558,751.12926 1.15066,197.18488 770.13606,289.84356 M 355.94558,751.12926 2096.4354,470.85715 l 0.28,193.06244 -962.1089,574.44901 -7.3742,-0.2109"
       style="fill:#cc7c25;fill-opacity:1;stroke:none;stroke-width:10px;stroke-linecap:butt;stroke-linejoin:miter;stroke-opacity:1"
       id="path1006" />
    <path
       style="fill:#f1be6d;fill-opacity:1;stroke:none;stroke-width:10px;stroke-linecap:butt;stroke-linejoin:miter;stroke-opacity:1"
       d="m 988.5044,932.66792 14.8028,1007.04078 131.7948,41.815 103.2052,-68.815 -10.7153,-982.20532"
       id="path998"
       sodipodi:nodetypes="ccccc" />
    <path
       style="fill:#fcb618;fill-opacity:1;stroke:none;stroke-width:10px;stroke-linecap:butt;stroke-linejoin:miter;stroke-opacity:1"
       d="M 1157.5238,1008.9796 100.89796,661.44218 103.70068,574.55783 1411.3072,73.708706 l 917.754,172.930754 2.8028,95.29251 -1171.1622,670.62713"
       id="path992"
       sodipodi:nodetypes="ccccccc" />
  </g>
  <g
     style="display:inline;opacity:1"
     inkscape:label="Layer 2"
     id="layer2"
     inkscape:groupmode="layer">
    <path
       sodipodi:nodetypes="ccccccc"
       id="path929"
       d="M 1151.9184,1008.9796 100.89796,661.44218 103.70068,574.55783 1411.3072,73.708706 l 917.754,172.930754 2.8028,95.29251 -1171.1622,667.82433"
       style="fill:none;stroke:#000000;stroke-width:10px;stroke-linecap:butt;stroke-linejoin:miter;stroke-opacity:1" />
    <path
       sodipodi:nodetypes="ccccc"
       id="path931"
       d="m 178.30712,692.6951 v 981.0136 l 129.9922,44.3593 92.4898,-53.2517 V 969.74154"
       style="fill:none;stroke:#000000;stroke-width:10px;stroke-linecap:butt;stroke-linejoin:miter;stroke-opacity:1" />
    <path
       sodipodi:nodetypes="ccc"
       id="path933"
       d="m 355.94558,751.12926 1.15066,197.18488 641.21092,239.39456"
       style="fill:none;stroke:#000000;stroke-width:10px;stroke-linecap:butt;stroke-linejoin:miter;stroke-opacity:1" />
    <path
       sodipodi:nodetypes="ccccc"
       id="path935"
       d="m 991.30712,974.70874 12.00008,964.99996 131.7948,41.815 103.2052,-68.815 -7.9126,-934.55906"
       style="fill:none;stroke:#000000;stroke-width:10px;stroke-linecap:butt;stroke-linejoin:miter;stroke-opacity:1" />
    <path
       sodipodi:nodetypes="ccccc"
       id="path937"
       d="m 2239.3742,389.57824 -1.067,973.13046 -77.4092,55.4681 -103.7007,-25.2245 -8.8901,-689.24359"
       style="fill:none;stroke:#000000;stroke-width:10px;stroke-linecap:butt;stroke-linejoin:miter;stroke-opacity:1" />
    <path
       sodipodi:nodetypes="ccccc"
       id="path939"
       d="m 1381.3072,1090.1305 8,158.5782 101.7405,32.1348 86.2731,-49.7402 -7.7969,-241.74276"
       style="fill:none;stroke:#000000;stroke-width:10px;stroke-linecap:butt;stroke-linejoin:miter;stroke-opacity:1" />
    <path
       sodipodi:nodetypes="ccc"
       id="path941"
       d="m 2096.4354,470.85715 0.28,193.06244 -858.4082,512.78911"
       style="fill:none;stroke:#000000;stroke-width:10px;stroke-linecap:butt;stroke-linejoin:miter;stroke-opacity:1" />
    <path
       style="fill:none;stroke:#000000;stroke-width:10px;stroke-linecap:butt;stroke-linejoin:miter;stroke-opacity:1"
       d="m 2096.4354,470.85715 0.28,193.06244 -858.4082,512.78911"
       id="path990"
       sodipodi:nodetypes="ccc" />
    <path
       id="path1995"
       d="M 911.63863,836.32933 364.65545,654.00161"
       style="fill:none;stroke:#000000;stroke-width:10px;stroke-linecap:butt;stroke-linejoin:miter;stroke-opacity:1" />
    <path
       sodipodi:nodetypes="cc"
       id="path1997"
       d="M 2072.987,384.47368 1442.7672,733.27455"
       style="fill:none;stroke:#000000;stroke-width:10px;stroke-linecap:butt;stroke-linejoin:miter;stroke-opacity:1" />
  </g>
</svg>
